  
  <svg><symbol id="tds-icon-performance"  viewBox="200 200 900 900" width="700" height="700" xmlns="http://www.w3.org/2000/svg">
    <path d="M12 8c-4.399 0-8 3.674-8 8.25a.75.75 0 0 1-1.5 0c0-5.365 4.234-9.75 9.5-9.75 5.267 0 9.5 4.385 9.5 9.75a.75.75 0 0 1-1.5 0C20 11.674 16.398 8 12 8Z"
      fill="currentColor" />
    <path d="M4 16.25C4 11.674 7.601 8 12 8a.75.75 0 0 0 0-1.5c-5.266 0-9.5 4.385-9.5 9.75a.75.75 0 0 0 1.5 0Zm8 .775c.69 0 1.25-.6 1.25-1.339 0-.869-.65-3.896-1.012-5.517a.242.242 0 0 0-.476 0c-.362 1.621-1.012 4.648-1.012 5.517 0 .74.56 1.339 1.25 1.339Z"
      fill="currentColor" />
  </symbol></svg>